<mxfile host="app.diagrams.net" modified="2020-09-18T23:17:39.107Z" agent="5.0 (Windows NT 10.0; Win64; x64) AppleWebKit/537.36 (KHTML, like Gecko) Chrome/85.0.4183.102 Safari/537.36" etag="lIv6402LHC6WAFf13YG2" version="13.7.3" type="github">
  <diagram name="Page-1" id="19d8dcba-68ad-dc05-1034-9cf7b2a963f6">
    <mxGraphModel dx="1673" dy="896" grid="1" gridSize="10" guides="1" tooltips="1" connect="1" arrows="1" fold="1" page="1" pageScale="1" pageWidth="1100" pageHeight="850" background="#ffffff" math="0" shadow="0">
      <root>
        <mxCell id="0" />
        <mxCell id="1" parent="0" />
        <mxCell id="218ae93e1282097f-43" value="" style="edgeStyle=orthogonalEdgeStyle;rounded=1;html=1;labelBackgroundColor=none;endArrow=block;endFill=1;strokeColor=#4D4D4D;strokeWidth=2;fontFamily=Verdana;fontSize=12;fontStyle=1" parent="1" source="6257edae8c83ed4a-1" target="6257edae8c83ed4a-9" edge="1">
          <mxGeometry relative="1" as="geometry" />
        </mxCell>
        <mxCell id="218ae93e1282097f-44" value="" style="edgeStyle=orthogonalEdgeStyle;rounded=1;html=1;labelBackgroundColor=none;endArrow=block;endFill=1;strokeColor=#4D4D4D;strokeWidth=2;fontFamily=Verdana;fontSize=12;fontStyle=1" parent="1" source="6257edae8c83ed4a-1" target="218ae93e1282097f-2" edge="1">
          <mxGeometry relative="1" as="geometry" />
        </mxCell>
        <mxCell id="218ae93e1282097f-45" value="" style="edgeStyle=elbowEdgeStyle;rounded=1;html=1;labelBackgroundColor=none;endArrow=block;endFill=1;strokeColor=#4D4D4D;strokeWidth=2;fontFamily=Verdana;fontSize=12;fontStyle=1" parent="1" source="6257edae8c83ed4a-1" target="6257edae8c83ed4a-21" edge="1">
          <mxGeometry relative="1" as="geometry" />
        </mxCell>
        <mxCell id="218ae93e1282097f-46" value="" style="edgeStyle=orthogonalEdgeStyle;rounded=1;html=1;labelBackgroundColor=none;endArrow=block;endFill=1;strokeColor=#4D4D4D;strokeWidth=2;fontFamily=Verdana;fontSize=12;fontStyle=1" parent="1" source="6257edae8c83ed4a-1" target="218ae93e1282097f-8" edge="1">
          <mxGeometry relative="1" as="geometry" />
        </mxCell>
        <mxCell id="nzAxDNzZ-5YGUSqPQMZi-3" value="" style="edgeStyle=orthogonalEdgeStyle;rounded=0;orthogonalLoop=1;jettySize=auto;html=1;" edge="1" parent="1" source="218ae93e1282097f-8" target="nzAxDNzZ-5YGUSqPQMZi-2">
          <mxGeometry relative="1" as="geometry" />
        </mxCell>
        <mxCell id="218ae93e1282097f-8" value="Share module" style="whiteSpace=wrap;html=1;rounded=1;shadow=0;comic=0;strokeWidth=2;fontFamily=Verdana;align=center;fontSize=12;fontStyle=1" parent="1" vertex="1">
          <mxGeometry x="260" y="220" width="200" height="50" as="geometry" />
        </mxCell>
        <mxCell id="nzAxDNzZ-5YGUSqPQMZi-7" value="" style="edgeStyle=orthogonalEdgeStyle;rounded=0;orthogonalLoop=1;jettySize=auto;html=1;" edge="1" parent="1" source="6257edae8c83ed4a-9" target="nzAxDNzZ-5YGUSqPQMZi-6">
          <mxGeometry relative="1" as="geometry" />
        </mxCell>
        <mxCell id="6257edae8c83ed4a-9" value="Feature module" style="whiteSpace=wrap;html=1;rounded=1;shadow=0;comic=0;strokeWidth=2;fontFamily=Verdana;align=center;fontSize=12;fontStyle=1" parent="1" vertex="1">
          <mxGeometry x="590" y="220" width="200" height="50" as="geometry" />
        </mxCell>
        <mxCell id="nzAxDNzZ-5YGUSqPQMZi-5" value="" style="edgeStyle=orthogonalEdgeStyle;rounded=0;orthogonalLoop=1;jettySize=auto;html=1;" edge="1" parent="1" source="6257edae8c83ed4a-21" target="nzAxDNzZ-5YGUSqPQMZi-4">
          <mxGeometry relative="1" as="geometry" />
        </mxCell>
        <mxCell id="6257edae8c83ed4a-21" value="Gluon-control" style="whiteSpace=wrap;html=1;rounded=1;shadow=0;comic=0;strokeWidth=2;fontFamily=Verdana;align=center;fontSize=12;fontStyle=1" parent="1" vertex="1">
          <mxGeometry x="887" y="220" width="200" height="50" as="geometry" />
        </mxCell>
        <mxCell id="6257edae8c83ed4a-1" value="App" style="whiteSpace=wrap;html=1;rounded=1;shadow=0;comic=0;strokeWidth=2;fontFamily=Verdana;align=center;fontSize=12;fontStyle=1" parent="1" vertex="1">
          <mxGeometry x="887" y="140" width="200" height="50" as="geometry" />
        </mxCell>
        <mxCell id="6257edae8c83ed4a-2" value="" style="shape=actor;whiteSpace=wrap;html=1;rounded=0;shadow=0;comic=0;strokeWidth=1;fillColor=#CCCCCC;fontFamily=Verdana;align=center;strokeColor=none;fontSize=12;fontStyle=1" parent="1" vertex="1">
          <mxGeometry x="901" y="150" width="24" height="30" as="geometry" />
        </mxCell>
        <mxCell id="nzAxDNzZ-5YGUSqPQMZi-9" value="" style="edgeStyle=orthogonalEdgeStyle;rounded=0;orthogonalLoop=1;jettySize=auto;html=1;" edge="1" parent="1" source="218ae93e1282097f-2" target="nzAxDNzZ-5YGUSqPQMZi-8">
          <mxGeometry relative="1" as="geometry" />
        </mxCell>
        <mxCell id="218ae93e1282097f-2" value="Utils" style="whiteSpace=wrap;html=1;rounded=1;shadow=0;comic=0;strokeWidth=2;fontFamily=Verdana;align=center;fontSize=12;fontStyle=1" parent="1" vertex="1">
          <mxGeometry x="1170" y="220" width="200" height="50" as="geometry" />
        </mxCell>
        <mxCell id="nzAxDNzZ-5YGUSqPQMZi-2" value="- Components&lt;br&gt;- Directives&lt;br&gt;- Pipes&lt;br&gt;- ...&lt;br&gt;- index.ts&lt;br&gt;" style="whiteSpace=wrap;html=1;rounded=1;shadow=0;fontFamily=Verdana;fontStyle=1;strokeWidth=2;comic=0;align=left;" vertex="1" parent="1">
          <mxGeometry x="250" y="345" width="220" height="105" as="geometry" />
        </mxCell>
        <mxCell id="nzAxDNzZ-5YGUSqPQMZi-4" value="- g-components&lt;br&gt;- index.ts&lt;br&gt;(Bộ UI tự tạo cho app)" style="whiteSpace=wrap;html=1;rounded=1;shadow=0;fontFamily=Verdana;fontStyle=1;strokeWidth=2;comic=0;align=left;" vertex="1" parent="1">
          <mxGeometry x="902" y="350" width="170" height="95" as="geometry" />
        </mxCell>
        <mxCell id="nzAxDNzZ-5YGUSqPQMZi-6" value="* Quiz module&lt;br&gt;- quiz-module.ts&lt;br&gt;- services&lt;br&gt;- model&lt;br&gt;- components&lt;br&gt;- index.ts" style="whiteSpace=wrap;html=1;rounded=1;shadow=0;fontFamily=Verdana;fontStyle=1;strokeWidth=2;comic=0;align=left;" vertex="1" parent="1">
          <mxGeometry x="615" y="340" width="150" height="105" as="geometry" />
        </mxCell>
        <mxCell id="nzAxDNzZ-5YGUSqPQMZi-8" value="&lt;div style=&quot;text-align: left&quot;&gt;&lt;span&gt;- Logic-handler&lt;/span&gt;&lt;/div&gt;&lt;div style=&quot;text-align: left&quot;&gt;&lt;span&gt;- ...&lt;/span&gt;&lt;/div&gt;" style="whiteSpace=wrap;html=1;rounded=1;shadow=0;fontFamily=Verdana;fontStyle=1;strokeWidth=2;comic=0;" vertex="1" parent="1">
          <mxGeometry x="1210" y="345" width="120" height="60" as="geometry" />
        </mxCell>
        <mxCell id="nzAxDNzZ-5YGUSqPQMZi-10" value="" style="edgeStyle=orthogonalEdgeStyle;rounded=0;orthogonalLoop=1;jettySize=auto;html=1;" edge="1" parent="1" source="nzAxDNzZ-5YGUSqPQMZi-11" target="nzAxDNzZ-5YGUSqPQMZi-12">
          <mxGeometry relative="1" as="geometry">
            <Array as="points">
              <mxPoint x="1480" y="320" />
              <mxPoint x="1480" y="320" />
            </Array>
          </mxGeometry>
        </mxCell>
        <mxCell id="nzAxDNzZ-5YGUSqPQMZi-11" value="Layouts" style="whiteSpace=wrap;html=1;rounded=1;shadow=0;comic=0;strokeWidth=2;fontFamily=Verdana;align=center;fontSize=12;fontStyle=1" vertex="1" parent="1">
          <mxGeometry x="1450" y="220" width="200" height="50" as="geometry" />
        </mxCell>
        <mxCell id="nzAxDNzZ-5YGUSqPQMZi-12" value="&lt;div style=&quot;text-align: left&quot;&gt;- Admin&lt;/div&gt;" style="whiteSpace=wrap;html=1;rounded=1;shadow=0;fontFamily=Verdana;fontStyle=1;strokeWidth=2;comic=0;" vertex="1" parent="1">
          <mxGeometry x="1410" y="362.5" width="120" height="60" as="geometry" />
        </mxCell>
        <mxCell id="nzAxDNzZ-5YGUSqPQMZi-13" value="" style="edgeStyle=orthogonalEdgeStyle;rounded=1;html=1;labelBackgroundColor=none;endArrow=block;endFill=1;strokeColor=#4D4D4D;strokeWidth=2;fontFamily=Verdana;fontSize=12;fontStyle=1;entryX=0.5;entryY=0;entryDx=0;entryDy=0;" edge="1" parent="1" source="6257edae8c83ed4a-1" target="nzAxDNzZ-5YGUSqPQMZi-11">
          <mxGeometry relative="1" as="geometry">
            <mxPoint x="1360" y="159.9988235294117" as="sourcePoint" />
            <mxPoint x="1542.9411764705883" y="214.94" as="targetPoint" />
          </mxGeometry>
        </mxCell>
        <mxCell id="nzAxDNzZ-5YGUSqPQMZi-14" value="&lt;div style=&quot;text-align: left&quot;&gt;&lt;span&gt;- Users&lt;/span&gt;&lt;/div&gt;" style="whiteSpace=wrap;html=1;rounded=1;shadow=0;fontFamily=Verdana;fontStyle=1;strokeWidth=2;comic=0;" vertex="1" parent="1">
          <mxGeometry x="1570" y="362.5" width="120" height="60" as="geometry" />
        </mxCell>
        <mxCell id="nzAxDNzZ-5YGUSqPQMZi-15" value="" style="edgeStyle=orthogonalEdgeStyle;rounded=0;orthogonalLoop=1;jettySize=auto;html=1;" edge="1" parent="1" source="nzAxDNzZ-5YGUSqPQMZi-11" target="nzAxDNzZ-5YGUSqPQMZi-14">
          <mxGeometry relative="1" as="geometry">
            <mxPoint x="1669.9999999999995" y="265" as="sourcePoint" />
            <mxPoint x="1669.9999999999995" y="340" as="targetPoint" />
            <Array as="points">
              <mxPoint x="1630" y="320" />
              <mxPoint x="1630" y="320" />
            </Array>
          </mxGeometry>
        </mxCell>
      </root>
    </mxGraphModel>
  </diagram>
</mxfile>
